<?xml version="1.0" encoding="UTF-8"?>
<svg id="Layer_1" xmlns="http://www.w3.org/2000/svg" version="1.1" viewBox="0 0 521 317">
  <!-- Generator: Adobe Illustrator 29.7.1, SVG Export Plug-In . SVG Version: 2.1.1 Build 8)  -->
  <defs>
    <style>
      .st0 {
        fill: #f4fced;
      }
    </style>
  </defs>
  <path class="st0" d="M60.3,225.1h.1c17,8.1,34.7-.9,45.1-15.6l.4-.3c1.4.1,2.7,1.7,3.7,2.6.4.2.8-.3,1.4-.5.8-.4,2.1-.9,2.7-1.4.5-2,.7-4.1,1-6.3,1.9-17.8,2.3-44.2,7.5-59.4-.3-.2-3.3-1.4-4-1.8h-.4c-2.3,3.3-16.2,13.6-31.2,18.5-.5.2-1.2.3-1.7.7-1.3,1.9-1.5,4.8-.8,6.9.2.5.3,1.2,1,1.1,3.9-1.4,8.6-2,11.9.6,9.4,8.2,5.6,27.4-.9,36.4-3.9,5.6-12.6,7.3-18,4.4-7.3-4.7-9.9-11.3-12.5-21.6-1.6-7.3-2-16.2-1.4-24.1.1-1.2.1-2.5.4-3.6.1-.3.4-.5.7-.6,17-2.9,33.9-11.4,46.1-22.7,15.6-14.5,21.1-32,5.6-41.1-14.4-8.5-48.6,10.8-63.8,46.4-1.5,3.1-2.2,6.5-3.9,9.5-16.7-1.1-26.3-18.2-13.1-24.8,5.7-3.3,12.5-.4,13.4,6,.3.6.8-.3,1.3-.6,5.6-4.7,7.4-14,2.9-19.7-4.9-6.9-15.8-6.1-22.8-2.5-23.7,11.1-18.5,46.5,15.8,50.7-.7,3.3-1.6,6.8-2.1,10.2-3,18-2.1,43.9,15.6,52.5v.1ZM65.9,151.7c.3-1.5.7-3.3,1-4.7h0c2.7-13.9,12.3-32.3,25-38,9-4.5,16.9-.8,15.1,8.9-2.5,10.9-11.2,19.5-20.7,26-5.7,3.8-12.4,6.8-19.8,8.6-.7.2-.8-.1-.6-.7v-.1Z"/>
  <path class="st0" d="M508.5,46.9h-.1c-2.8-3.7-7.9-4.8-12.2-3.9-16.9,3.7-18,38.1-27.7,37.6-1.5-.9-1.3-3.7-1.3-5.4.9-9.4,2.1-21.2,3.8-31.6,1.2-1.5,4.4-.9,5.2-2.9.7-1.6,1.3-4.5,1-6.7-.1-.3-.5-.1-.9.1-.9.5-1.8,1-2.7,1.4-2.4,1.5-1.2-1.4-1.2-2.7.6-4.1,1.4-9.9,1.8-13.3-.2-.5-.7-.5-1.4-1-.8-.4-1.1-1-1.7-.5-2.3,2.1-6.7,4.4-12,6.1-1,.2-1.1.9-1,1.8-.1,4.5-.4,8.6-.8,13.4,0,.9-.7,1.3-1.7,1.3-1.2.4-3.4.2-4.3.8,0,.2,0,.4-.1.7-.1,1.2-.6,3.4-.7,4.5,0,.3.2.3.7.3,1.5,0,3.4-.4,5-.4.3,0,.4.2.4.5-.8,7.7-1.7,16.2-3,23.5-2,5.7-4.9,19.3-10.4,19.3-1.7-.4-2.2-2.3-2.4-4,0-8.5,7.4-25.2,5.7-37.1-1.9-14-16.1-9.1-21.9-.2-2,2.5-3.1,4.6-4,6.5-.2,0,0-.3,0-.7,1.9-17.6,3.9-33.3,4.6-38.5,0-.7-.6-.6-1.4-1.2-.8-.3-1.1-.9-1.7-.6-3,2.9-10.4,5.6-15.4,7.3-.2,12.5-.4,34.6-4.3,62-1.3,3.9-4.9,14.8-10.7,21-.8-2.9,0-7.1,0-10.4,1.3-19,4.8-33.8,4.9-41.8-.8-.3-2.1-1.7-2.8-1.2-2.4,2.2-6.7,4.4-12,6.1-1.9.5-.6,2.9-1.2,4.2-8.6-5.7-16,.4-21.3,9.3l-10-16,19.1-2.7-17.5-4.4,38.9-33.5-42.9,28.2.6-18.1-7.9,17.7-29.2-32.1,22.9,36.9-10.9,1.6c.3-2.3.5-4.2.6-5.4,0-.6-.7-.6-1.5-1.2-1.2-.9-1.4-.6-2.3.2-3.4,3-8.3,3.8-12.2,6.2,0,4.9-.9,16.6-2.1,29l-11.5,9.9h0c-6.7-17-24.9,2.7-27,12.8,0,.2-.3.6-.3,0,0-4.4,0-8.7-.5-11.4-.2-.7-.6-.7-1.5-1.2-.8-.4-1.2-1-1.7-.5-1.2,1.1-2.1,2-3.8,2.8-1.6.8-4.5,1.8-6.4,2.3-.4.3-1.1.4-.9,1,1.1,9.1.3,18.7-.8,28.2-1.2,9.9-10.8,20.4-16.7,21.9-5.4,1.5-10-1.7-12-7.3,0-.4-.3-.9,0-1.1,11-5.4,23.8-20.2,21.3-34-1.8-10.5-14.7-9-22.9,2.1-7.5,9.1-12.3,22.7-13.2,32.7-5.2,14.4-20.8,28.6-28.3,11.6,0-.4-.3-.9,0-1.1,1.7-.9,3.7-2,5.6-3.4,26.9-19.5,16.4-54.9-7.2-28.4-7.2,8.9-12.5,22.4-12.9,31.7-2.1,6.7-6,17.7-11.1,19.4-5.4-1.8,3.2-29.8,3.9-35.3,1.1-4.6,2.2-8.6,3-11,0-1.2-1-2.2-1.9-3.1-.8-.6-2-1.5-2.9-.7-3.1,4-9.6,8.1-14.2,7.3-1.2-5-2.6-14.3-7.7-13.7-3.3.4-4.8,4-4.8,8,0,4.6,2.3,9.2,6.6,11.5.7,1.8-.5,4.2-.7,6.2-2.9,13.5-8.2,32.4-16.8,41.8-.3.3-.3.6-.1,1,2,3.3,6.8,5.5,9.2,5.1,5.5-12.6,10.1-39,12.9-52.6.2-.4.3-.6.9-.7,3.9-.1,7.4-.9,9.8-2,.3-.1.6-.2.4.3-3.7,8.2-13,22.4-13,36-.2,15.5,12.5,21.1,21.3,7.3,2.3-3.6,4-8.6,6.1-13.6,8.3,24.3,33.2,10.7,42.4-11.1.1-.2.4-.9.6-.4,6.5,22.3,29.8,12.6,39.7-5.6.3-.4,0,.7,0,1.3-.3,2.5-.7,5.1-1.1,7.7,0,1.2-.9,2.2.7,1.6,3.9-1.2,15.3-3.7,17.3-4.8-1.2-11.5,0-26.4,3-36.6,2.9-9.4,6.6-17.1,10.4-14.6,4.1,4.3-8.1,26.4-5.3,39.6,1.2,7.4,9.2,10.4,15.6,7.4,6.2-2.4,9.5-8.6,11.7-14.5.3-.3.3-.1.4.3,1.2,5.4,4.1,9.6,10,8.4,6.8-1.4,11-9.7,14.4-17.5,1.4,6,3.8,13.2,11.9,10.6,6.4-2.1,11.1-11.4,14.1-19.6.4-.9.5,0,.7,1,1.4,6.6,6.9,14,13.6,11,4.9-1.8,8.6-8.2,11.2-15.2v1.5c0,1.9-.2,7.4-.3,8.4-5,3.8-11.8,7-16.3,11.1-18.1,17.9,7.9,35,23.3,18.5,7.1-7.6,7.9-19.2,8.2-31.4,3.4-3.2,6.7-7.9,8.8-12.2-.2,2.6-.7,5.5-1,8.2,0,.2.1.2.3.1,2-.5,12.5-3.3,15.9-4.2.7-.3,1,0,1-.6.7-12.6.3-25.9,3.8-38.5,1.8-4.8,4.3-11.2,8.7-13.5,3.6-.5,2.9,3.8,2.1,8.1-2,10-8.9,24.9-4.3,35.2,4.1,8.5,16.6,5.9,21.5-1.2,2.1-2.7,3.5-6.1,4.8-9.2,0,0,.2,0,.2.2,1.2,8.8,9.3,11.7,15.6,5.8,10.8-10.3,12.4-26.3,19.9-38.6,4.4-9.3,18.7-10.6,18.1,2.2-.5,6.9-2.5,12.5-5.3,18.7-4.7,10.7-10,23.7-16.2,34-11.4,19-33.2,33.6-54.1,37.7-20.4,4.1-40.9,8.1-61.4,11.7-90.1,15.2-178.9,25.4-254.4,76.6-20.9,14.2-40.8,31.6-59.4,53.1-.1.2-2.2,2.4-4.7,5.1-1.7,1.8-6.1,7-6.1,7,0,0,2.3-1.8,4.3-3.3,1.4-1.1,2.5-2,2.7-2.1,5.9-4.5,12.4-7.8,18.6-10.6,18.5-9,38-11.9,55.2-7.2,15.1,4.1,28.4,14.1,37.9,31,10.6-22.3,27-45.2,42.9-58.1,82.2-76.3,235.9-45.9,285-140.9,3.1-8.2,25.2-48.3,16.6-61.6l.2.2ZM177.4,140.7c-1-8.4.6-17.7,6-24.4h.1c4.1-5,4.6,2.6,3.8,6.8-.9,6.4-4.1,14.6-9.5,18-.3.1-.4,0-.4-.4h0ZM220.4,129.4c-1-8.4.6-17.7,6-24.4h.1c4.1-5,4.6,2.6,3.8,6.8-.9,6.4-4.1,14.6-9.5,18-.3.1-.4,0-.4-.4ZM374.3,133.3h0c-2.5,5.9-8.9,4.5-8.3,0,.4-3.1,4.6-6.3,9.9-9.9-.4,4.4-.9,8-1.6,9.9ZM322,51.3l9.7,2.4-11.2,9.7c.6-4.5,1.1-8.7,1.5-12.1ZM301.1,109.7c-2.5,6.8-4.1,16.8-9.3,20.4-2.7,1.1-3.9-2.7-3.7-4.7.2-8.6,8.3-26.7,5.3-38.5l11.2-7.4c-1.1,11.3-2.4,22.8-3.5,30.1v.1ZM329.2,74.6c-.7,9.7-2,19.2-3.6,29-.1,2-8.9,24.5-11,14.8.5-11.4,2.9-31.8,5.1-48.8l16-10.5-.4,13.7c-2,.5-4.1,1.1-6,1.8h-.1ZM350.8,96.6c-.4,2.3-8.2,23.6-10.9,15.8,0-16,4-35.3,5.6-41.1,0-.3-.7-1.5-1.1-1.6-2.2,1.1-4.6,1.9-7,2.5l5.7-12.7,14,15.4c-3.9,8.1-6.2,17.2-6.3,21.7h0ZM373.2,100h0c-.9,2.8-4.5,10.3-7.3,5.4-.9-1.6-1-5.7-.7-8.2.3-3.9.8-7.8,1.6-11.7l5.5,6.1-5.1-8.2c.2-1,.4-2,.6-3,1.8-7.1,4.7-18,10.6-14.7,1.4,1.1,1.8,3.4,1.8,5.2-1.3,9.4-3.6,20.3-6.9,29.2l-.1-.1Z"/>
</svg>