<?xml version="1.0" encoding="UTF-8"?>
<svg id="Layer_1" xmlns="http://www.w3.org/2000/svg" version="1.1" viewBox="0 0 576 403">
  <!-- Generator: Adobe Illustrator 29.7.1, SVG Export Plug-In . SVG Version: 2.1.1 Build 8)  -->
  <defs>
    <style>
      .st0 {
        fill: #fff;
      }

      .st1 {
        fill: #071000;
      }
    </style>
  </defs>
  <path class="st1" d="M550.3,75.6l-.8-1.1c-5.6-7.2-15.6-10.6-25.4-8.5-1.1.3-2.2.6-3.3.9v-.9c-.1,0-.9-1.6-.9-1.6-.6-1.4-1.4-2.6-2.4-3.7.2-1.4.3-2.7.5-3.8l.3-2.7-.8-2.6c-.8-2.5-2.5-6-6.8-8.4l-.6-.4-.6-.2c-5.9-3.6-11.9-2.1-15.6.6l-.6.4-.5.5c-.5.4-2.7,1.8-7,3.2-5.5,1.6-10.5,6.6-10.4,14.5v1.8c-.6-.2-1.1-.3-1.7-.5-2-.5-4.1-.6-6.1-.5.5-3.8.9-6.8,1.1-8.7v-.7c.7-4.4-.9-10.5-7-13.9l-.5-.4-.7-.3c-5.6-3.4-11.4-2.2-14.9.1l-1,.7-.7.7c-.5.3-2.8,1.9-10.6,4.5l-7.2,2.4,26.9-26.3-69.6,44.2-1.9-23.8-13,23.3s-36.9-37.4-38.3-37.4c-.5.5,10.8,23,18,37.2-1.8.7-4,1.7-6.7,3.1h-.1c-.5.5-2.2,1.2-3.4,1.6-2,.8-4.5,1.8-7,3.3l-6.4,3.8v7.4c0,3.4-.6,11.2-1.4,20.2-2.7-1-5.6-1.4-8.6-1.1-5.7.5-11.1,3.3-15.7,7.1-5.6-2.3-10.9-.5-14.1,2.1l-.7.7c-.4.4-.6.5-.6.5h-.2s-1.1.6-4.1,1.5l-2,.6-1.1.8c-.7.4-1.3.8-1.9,1.3-1-.4-2-.7-3.1-1-10.5-2.5-22.4,2.9-30.5,13.7-.9,1.1-1.7,2.2-2.5,3.3-2.5-2.7-5.7-4.7-9.3-5.8-6.9-1.9-17.8-1.3-30.6,13.1l-.4.5h0l-.9-.7c-6.7-4.9-13.2-4-17.5-1.3-3-4.7-7.6-8.6-14.8-8.4-2.6-3.5-6-6.6-10.2-9-7.7-4.6-17.6-5.1-28.6-1.5-11.1,3.6-22,10.9-31.5,20.6-9.3-11.3-26.3-11.3-38.2-5.3-15.7,7.5-24.2,23.1-21.5,39.9,2.4,14.8,12.8,26.6,27.7,32.3-4.8,31.3,3.7,55.4,23,64.8l.3.2c6.1,2.9,12.5,4.3,18.9,4.3s4.2-.2,6.2-.5c-5.5,5-12.7,11.7-17.7,17.2,0,0-16.4,17-26.7,31-30.3,41.2-51.7,70.8-51.7,70.8l13-11c10.9-9.8,21.2-18.1,30.8-25,9-6.5,17.4-11.8,25-16.2,11-6.2,15.2-8,20.8-10.5l3.4-1.6s7.1-2.8,7.2-2.9c16-6.6,34.2-7.1,49.1,1.2,7.6,4.3,14.4,10.8,19.6,20l12.5,22.2,10.9-23c10.1-21.3,25.5-42.3,39.3-53.5l.7-.6c34.6-32.1,84.6-44.4,133-56.3,61.5-15.1,125-30.7,154.7-88.2l.3-.7.3-.7c.4-1,1.6-3.7,2.8-6.2,11.9-25.4,22.7-51.5,12.5-67.2l-.2.5ZM116,234.8h0c-.3.2-.7.3-1.1.4-2.2-1.8-3.7-4.5-5.8-12.8-.4-1.8-.7-3.7-.9-5.8,3.2,2,7,2.5,10.2,1.9l1-.2.5-.2c.8,3.9-.5,12.1-3.8,16.7h-.1ZM202.8,222.2c-15.9,6-30.8,12.8-44.5,20.5,0-.3,0-.7.1-1v-.9c.5-3.2.7-6.6,1-10.1h.3l7.2-1.1,2.1-4.9c1.1.6,2.4,1.1,3.6,1.4,7.5,2.3,18.2.6,26.4-10.3,4.2,2,8.2,2.6,10.6,2.6,1.3,0,2.6,0,3.9-.1-3.6,1.2-7.2,2.5-10.7,3.9h0ZM226.8,214.1c4.7-2.6,9.1-6.2,13-10.6,3.2,1.9,6.7,3,10.6,3.5.5,0,1,0,1.5.1-8.5,2.1-16.9,4.5-25.2,7h.1ZM359.9,186.8c-30.1,4.7-60.7,9.4-90.8,16.2,2.1-1.1,4.2-2.4,6.1-3.8,2,.4,4.5.3,7.2-.6,1.3-.4,3.6-.9,5.8-1.5,7.8-2,11-2.8,13.3-4l5.4-2.7c5.6,1.7,11.9,1.3,17.4-1.1,3.5-1.4,6.3-3.3,8.7-5.5,3.6,1.2,7.3,1.3,10.9.6,5.5-1.1,9.8-4,13.2-7.5,3.4,1.4,8.2,2.1,14.2.3.1,1.5.4,3.1.8,4.6.3,1.1.7,2.1,1.1,3.2-4.5.7-9,1.4-13.5,2.1l.2-.3ZM423.8,73.6c-3.9.3-6.7,2.3-7.5,2.9l-.7.6c-.5.4-2.7,1.9-7.2,3.4-1.1.3-2.1.8-3.1,1.4h-.6l-10.4-3.7,30.1-29.4-.2,9.5c0,4.2-.2,9.4-.4,15.3h0ZM459.4,169.1c-9.5,1.9-18.4,3.7-27,5.3,1.6-5.5,2.3-11.1,2.7-16.2l14.7-3.9c3.2-.7,6-2.5,7.8-5,2.1.8,4.4,1.3,6.8,1.5,7.7.6,15.7-2.4,21.4-7.7,5.2,1.7,10.7,1.4,15.7-.9-9.8,13.1-26.1,23.5-42.2,26.7l.1.2Z"/>
  <g>
    <path class="st0" d="M91.3,260.1h.1c17,8.1,34.7-.9,45.1-15.6l.4-.3c1.4.1,2.7,1.7,3.7,2.6.4.2.8-.3,1.4-.5.8-.4,2.1-.9,2.7-1.4.5-2,.7-4.1,1-6.3,1.9-17.8,2.3-44.2,7.5-59.4-.3-.2-3.3-1.4-4-1.8h-.4c-2.3,3.3-16.2,13.6-31.2,18.5-.5.2-1.2.3-1.7.7-1.3,1.9-1.5,4.8-.8,6.9.2.5.3,1.2,1,1.1,3.9-1.4,8.6-2,11.9.6,9.4,8.2,5.6,27.4-.9,36.4-3.9,5.6-12.6,7.3-18,4.4-7.3-4.7-9.9-11.3-12.5-21.6-1.6-7.3-2-16.2-1.4-24.1.1-1.2.1-2.5.4-3.6.1-.3.4-.5.7-.6,17-2.9,33.9-11.4,46.1-22.7,15.6-14.5,21.1-32,5.6-41.1-14.4-8.5-48.6,10.8-63.8,46.4-1.5,3.1-2.2,6.5-3.9,9.5-16.7-1.1-26.3-18.2-13.1-24.8,5.7-3.3,12.5-.4,13.4,6,.3.6.8-.3,1.3-.6,5.6-4.7,7.4-14,2.9-19.7-4.9-6.9-15.8-6.1-22.8-2.5-23.7,11.1-18.5,46.5,15.8,50.7-.7,3.3-1.6,6.8-2.1,10.2-3,18-2.1,43.9,15.6,52.5v.1ZM96.9,186.7c.3-1.5.7-3.3,1-4.7h0c2.7-13.9,12.3-32.3,25-38,9-4.5,16.9-.8,15.1,8.9-2.5,10.9-11.2,19.5-20.7,26-5.7,3.8-12.4,6.8-19.8,8.6-.7.2-.8-.1-.6-.7v-.1Z"/>
    <path class="st0" d="M539.5,81.9h-.1c-2.8-3.7-7.9-4.8-12.2-3.9-16.9,3.7-18,38.1-27.7,37.6-1.5-.9-1.3-3.7-1.3-5.4.9-9.4,2.1-21.2,3.8-31.6,1.2-1.5,4.4-.9,5.2-2.9.7-1.6,1.3-4.5,1-6.7-.1-.3-.5-.1-.9.1-.9.5-1.8,1-2.7,1.4-2.4,1.5-1.2-1.4-1.2-2.7.6-4.1,1.4-9.9,1.8-13.3-.2-.5-.7-.5-1.4-1-.8-.4-1.1-1-1.7-.5-2.3,2.1-6.7,4.4-12,6.1-1,.2-1.1.9-1,1.8-.1,4.5-.4,8.6-.8,13.4,0,.9-.7,1.3-1.7,1.3-1.2.4-3.4.2-4.3.8,0,.2,0,.4-.1.7-.1,1.2-.6,3.4-.7,4.5,0,.3.2.3.7.3,1.5,0,3.4-.4,5-.4.3,0,.4.2.4.5-.8,7.7-1.7,16.2-3,23.5-2,5.7-4.9,19.3-10.4,19.3-1.7-.4-2.2-2.3-2.4-4,0-8.5,7.4-25.2,5.7-37.1-1.9-14-16.1-9.1-21.9-.2-2,2.5-3.1,4.6-4,6.5-.2,0,0-.3,0-.7,1.9-17.6,3.9-33.3,4.6-38.5,0-.7-.6-.6-1.4-1.2-.8-.3-1.1-.9-1.7-.6-3,2.9-10.4,5.6-15.4,7.3-.2,12.5-.4,34.6-4.3,62-1.3,3.9-4.9,14.8-10.7,21-.8-2.9,0-7.1,0-10.4,1.3-19,4.8-33.8,4.9-41.8-.8-.3-2.1-1.7-2.8-1.2-2.4,2.2-6.7,4.4-12,6.1-1.9.5-.6,2.9-1.2,4.2-8.6-5.7-16,.4-21.3,9.3l-10-16,19.1-2.7-17.5-4.4,38.9-33.5-42.9,28.2.6-18.1-7.9,17.7-29.2-32.1,22.9,36.9-10.9,1.6c.3-2.3.5-4.2.6-5.4,0-.6-.7-.6-1.5-1.2-1.2-.9-1.4-.6-2.3.2-3.4,3-8.3,3.8-12.2,6.2,0,4.9-.9,16.6-2.1,29l-11.5,9.9h0c-6.7-17-24.9,2.7-27,12.8,0,.2-.3.6-.3,0,0-4.4,0-8.7-.5-11.4-.2-.7-.6-.7-1.5-1.2-.8-.4-1.2-1-1.7-.5-1.2,1.1-2.1,2-3.8,2.8-1.6.8-4.5,1.8-6.4,2.3-.4.3-1.1.4-.9,1,1.1,9.1.3,18.7-.8,28.2-1.2,9.9-10.8,20.4-16.7,21.9-5.4,1.5-10-1.7-12-7.3,0-.4-.3-.9,0-1.1,11-5.4,23.8-20.2,21.3-34-1.8-10.5-14.7-9-22.9,2.1-7.5,9.1-12.3,22.7-13.2,32.7-5.2,14.4-20.8,28.6-28.3,11.6,0-.4-.3-.9,0-1.1,1.7-.9,3.7-2,5.6-3.4,26.9-19.5,16.4-54.9-7.2-28.4-7.2,8.9-12.5,22.4-12.9,31.7-2.1,6.7-6,17.7-11.1,19.4-5.4-1.8,3.2-29.8,3.9-35.3,1.1-4.6,2.2-8.6,3-11,0-1.2-1-2.2-1.9-3.1-.8-.6-2-1.5-2.9-.7-3.1,4-9.6,8.1-14.2,7.3-1.2-5-2.6-14.3-7.7-13.7-3.3.4-4.8,4-4.8,8,0,4.6,2.3,9.2,6.6,11.5.7,1.8-.5,4.2-.7,6.2-2.9,13.5-8.2,32.4-16.8,41.8-.3.3-.3.6-.1,1,2,3.3,6.8,5.5,9.2,5.1,5.5-12.6,10.1-39,12.9-52.6.2-.4.3-.6.9-.7,3.9-.1,7.4-.9,9.8-2,.3-.1.6-.2.4.3-3.7,8.2-13,22.4-13,36-.2,15.5,12.5,21.1,21.3,7.3,2.3-3.6,4-8.6,6.1-13.6,8.3,24.3,33.2,10.7,42.4-11.1.1-.2.4-.9.6-.4,6.5,22.3,29.8,12.6,39.7-5.6.3-.4,0,.7,0,1.3-.3,2.5-.7,5.1-1.1,7.7,0,1.2-.9,2.2.7,1.6,3.9-1.2,15.3-3.7,17.3-4.8-1.2-11.5,0-26.4,3-36.6,2.9-9.4,6.6-17.1,10.4-14.6,4.1,4.3-8.1,26.4-5.3,39.6,1.2,7.4,9.2,10.4,15.6,7.4,6.2-2.4,9.5-8.6,11.7-14.5.3-.3.3-.1.4.3,1.2,5.4,4.1,9.6,10,8.4,6.8-1.4,11-9.7,14.4-17.5,1.4,6,3.8,13.2,11.9,10.6,6.4-2.1,11.1-11.4,14.1-19.6.4-.9.5,0,.7,1,1.4,6.6,6.9,14,13.6,11,4.9-1.8,8.6-8.2,11.2-15.2v1.5c0,1.9-.2,7.4-.3,8.4-5,3.8-11.8,7-16.3,11.1-18.1,17.9,7.9,35,23.3,18.5,7.1-7.6,7.9-19.2,8.2-31.4,3.4-3.2,6.7-7.9,8.8-12.2-.2,2.6-.7,5.5-1,8.2,0,.2.1.2.3.1,2-.5,12.5-3.3,15.9-4.2.7-.3,1,0,1-.6.7-12.6.3-25.9,3.8-38.5,1.8-4.8,4.3-11.2,8.7-13.5,3.6-.5,2.9,3.8,2.1,8.1-2,10-8.9,24.9-4.3,35.2,4.1,8.5,16.6,5.9,21.5-1.2,2.1-2.7,3.5-6.1,4.8-9.2,0,0,.2,0,.2.2,1.2,8.8,9.3,11.7,15.6,5.8,10.8-10.3,12.4-26.3,19.9-38.6,4.4-9.3,18.7-10.6,18.1,2.2-.5,6.9-2.5,12.5-5.3,18.7-4.7,10.7-10,23.7-16.2,34-11.4,19-33.2,33.6-54.1,37.7-20.4,4.1-40.9,8.1-61.4,11.7-90.1,15.2-178.9,25.4-254.4,76.6-20.9,14.2-40.8,31.6-59.4,53.1-.1.2-2.2,2.4-4.7,5.1-1.7,1.8-6.1,7-6.1,7,0,0,2.3-1.8,4.3-3.3,1.4-1.1,2.5-2,2.7-2.1,5.9-4.5,12.4-7.8,18.6-10.6,18.5-9,38-11.9,55.2-7.2,15.1,4.1,28.4,14.1,37.9,31,10.6-22.3,27-45.2,42.9-58.1,82.2-76.3,235.9-45.9,285-140.9,3.1-8.2,25.2-48.3,16.6-61.6l.2.2ZM208.4,175.7c-1-8.4.6-17.7,6-24.4h.1c4.1-5,4.6,2.6,3.8,6.8-.9,6.4-4.1,14.6-9.5,18-.3.1-.4,0-.4-.4h0ZM251.4,164.4c-1-8.4.6-17.7,6-24.4h.1c4.1-5,4.6,2.6,3.8,6.8-.9,6.4-4.1,14.6-9.5,18-.3.1-.4,0-.4-.4ZM405.3,168.3h0c-2.5,5.9-8.9,4.5-8.3,0,.4-3.1,4.6-6.3,9.9-9.9-.4,4.4-.9,8-1.6,9.9ZM353,86.3l9.7,2.4-11.2,9.7c.6-4.5,1.1-8.7,1.5-12.1ZM332.1,144.7c-2.5,6.8-4.1,16.8-9.3,20.4-2.7,1.1-3.9-2.7-3.7-4.7.2-8.6,8.3-26.7,5.3-38.5l11.2-7.4c-1.1,11.3-2.4,22.8-3.5,30.1v.1ZM360.2,109.6c-.7,9.7-2,19.2-3.6,29-.1,2-8.9,24.5-11,14.8.5-11.4,2.9-31.8,5.1-48.8l16-10.5-.4,13.7c-2,.5-4.1,1.1-6,1.8h-.1ZM381.8,131.6c-.4,2.3-8.2,23.6-10.9,15.8,0-16,4-35.3,5.6-41.1,0-.3-.7-1.5-1.1-1.6-2.2,1.1-4.6,1.9-7,2.5l5.7-12.7,14,15.4c-3.9,8.1-6.2,17.2-6.3,21.7h0ZM404.2,135h0c-.9,2.8-4.5,10.3-7.3,5.4-.9-1.6-1-5.7-.7-8.2.3-3.9.8-7.8,1.6-11.7l5.5,6.1-5.1-8.2c.2-1,.4-2,.6-3,1.8-7.1,4.7-18,10.6-14.7,1.4,1.1,1.8,3.4,1.8,5.2-1.3,9.4-3.6,20.3-6.9,29.2l-.1-.1Z"/>
  </g>
</svg>