<?xml version="1.0" encoding="UTF-8"?>
<svg id="Layer_1" xmlns="http://www.w3.org/2000/svg" version="1.1" viewBox="0 0 268 265">
  <!-- Generator: Adobe Illustrator 29.7.1, SVG Export Plug-In . SVG Version: 2.1.1 Build 8)  -->
  <defs>
    <style>
      .st0 {
        fill: #fff;
      }

      .st1 {
        fill: #8abd50;
      }
    </style>
  </defs>
  <polygon class="st0" points="236.9 131.9 236.9 131.4 229.4 126.3 229.4 126.8 134 212.7 134 212.7 134 225.7 134 225.7 236.9 131.9"/>
  <polygon class="st0" points="226.1 43.1 225.3 43.1 219.8 48.1 219.9 48.1 229.4 126.3 236.9 131.4 226.1 43.1"/>
  <polygon class="st0" points="39.8 43.1 39.8 43.3 45.2 49 45.3 48.1 219.8 48.1 225.3 43.1 39.8 43.1"/>
  <polygon class="st0" points="134 212.7 38.6 126.2 38.6 126 31.4 132.3 134 225.7 134 212.7"/>
  <polygon class="st0" points="45.2 49 39.8 43.3 31.1 132.1 31.4 132.3 38.6 126 45.2 49"/>
  <path class="st0" d="M114.8,168.3h.1c15.1,6.8,30.7-.7,40-13.1l.3-.3c1.2.1,2.4,1.5,3.3,2.2.4.1.7-.3,1.2-.4.7-.3,1.9-.7,2.4-1.2.4-1.7.6-3.5.8-5.3,1.7-14.9,2.1-37.1,6.6-49.8-.3-.2-2.9-1.2-3.5-1.5h-.3c-2,2.8-14.3,11.4-27.6,15.5-.5.2-1,.3-1.5.6-1.1,1.6-1.3,4-.7,5.8.2.4.3,1,.8.9,3.4-1.2,7.6-1.6,10.5.5,8.4,6.8,5,23-.8,30.5-3.4,4.7-11.2,6.1-15.9,3.7-6.5-3.9-8.8-9.5-11.1-18.1-1.4-6.2-1.8-13.6-1.3-20.2,0-1,.1-2.1.3-3,.1-.3.3-.4.6-.5,15-2.4,30-9.6,40.9-19.1,13.9-12.1,18.7-26.9,5-34.5-12.8-7.1-43.1,9.1-56.5,38.9-1.4,2.6-2,5.5-3.4,8-14.8-.9-23.3-15.2-11.6-20.8,5-2.7,11.1-.3,11.9,5,.2.5.7-.2,1.1-.5,5-4,6.6-11.7,2.6-16.5-4.3-5.8-14-5.2-20.2-2.1-21,9.3-16.4,39,14,42.5-.6,2.8-1.4,5.7-1.8,8.6-2.7,15.1-1.8,36.8,13.8,44v.2ZM119.8,106.7c.3-1.2.6-2.8.9-4h0c2.4-11.7,10.9-27.1,22.2-31.8,8-3.8,14.9-.7,13.4,7.4-2.2,9.1-9.9,16.3-18.4,21.8-5.1,3.2-11,5.7-17.6,7.2-.6.1-.7-.1-.6-.5l.1-.1Z"/>
  <polygon class="st1" points="176.7 84.2 145.7 123.4 181.7 88.3 184.8 105 188.9 87.1 223.8 110.4 194.1 81.3 212.2 74.7 194.2 74.4 225.3 35.3 189.2 70.4 186.2 53.6 182 71.6 147.2 48.2 176.9 77.3 158.8 83.9 176.7 84.2"/>
</svg>