<?xml version="1.0" encoding="UTF-8"?>
<svg id="Layer_1" xmlns="http://www.w3.org/2000/svg" version="1.1" viewBox="0 0 576 756">
  <!-- Generator: Adobe Illustrator 29.6.1, SVG Export Plug-In . SVG Version: 2.1.1 Build 9)  -->
  <defs>
    <style>
      .st0 {
        fill: #fff;
      }

      .st1 {
        fill: #8abd50;
      }
    </style>
  </defs>
  <polygon class="st0" points="393 388 393 387.5 385.5 382.4 385.5 382.9 290.1 468.8 290.1 468.8 290.1 481.8 290.1 481.8 393 388"/>
  <polygon class="st0" points="382.2 299.2 381.4 299.2 375.9 304.2 376 304.2 385.5 382.4 393 387.5 382.2 299.2"/>
  <polygon class="st0" points="195.9 299.2 195.9 299.4 201.3 305.1 201.4 304.2 375.9 304.2 381.4 299.2 195.9 299.2"/>
  <polygon class="st0" points="290.1 468.8 194.7 382.3 194.7 382.1 187.5 388.4 290.1 481.8 290.1 468.8"/>
  <polygon class="st0" points="201.3 305.1 195.9 299.4 187.2 388.2 187.5 388.4 194.7 382.1 201.3 305.1"/>
  <path class="st0" d="M270.9,424.4h.1c15.1,6.8,30.7-.7,40-13.1l.3-.3c1.2.1,2.4,1.5,3.3,2.2.4.1.7-.3,1.2-.4.7-.3,1.9-.7,2.4-1.2.4-1.7.6-3.5.8-5.3,1.7-14.9,2.1-37.1,6.6-49.8-.3-.2-2.9-1.2-3.5-1.5-.2,0-.2,0-.3,0-2,2.8-14.3,11.4-27.6,15.5-.5.2-1,.3-1.5.6-1.1,1.6-1.3,4-.7,5.8.2.4.3,1,.8.9,3.4-1.2,7.6-1.6,10.5.5,8.4,6.8,5,23-.8,30.5-3.4,4.7-11.2,6.1-15.9,3.7-6.5-3.9-8.8-9.5-11.1-18.1-1.4-6.2-1.8-13.6-1.3-20.2,0-1,.1-2.1.3-3,.1-.3.3-.4.6-.5,15-2.4,30-9.6,40.9-19.1,13.9-12.1,18.7-26.9,5-34.5-12.8-7.1-43.1,9.1-56.5,38.9-1.4,2.6-2,5.5-3.4,8-14.8-.9-23.3-15.2-11.6-20.8,5-2.7,11.1-.3,11.9,5,.2.5.7-.2,1.1-.5,5-4,6.6-11.7,2.6-16.5-4.3-5.8-14-5.2-20.2-2.1-21,9.3-16.4,39,14,42.5-.6,2.8-1.4,5.7-1.8,8.6-2.7,15.1-1.8,36.8,13.8,44ZM275.9,362.8c.3-1.2.6-2.8.9-4h0c2.4-11.7,10.9-27.1,22.2-31.8,8-3.8,14.9-.7,13.4,7.4-2.2,9.1-9.9,16.3-18.4,21.8-5.1,3.2-11,5.7-17.6,7.2-.6.1-.7-.1-.6-.5Z"/>
  <path class="st0" d="M164.9,255.1v245.9h245.9v-245.9h-245.9ZM410.8,411.4c0,3.4,0,6.8,0,10.3,0,2.9,0,5.8-.1,8.6-.2,6.3-.5,12.6-1.7,18.8-1.1,6.3-3,12.2-5.9,17.9-2.9,5.6-6.6,10.8-11.1,15.2s-9.6,8.2-15.2,11.1c-5.7,2.9-11.6,4.8-17.9,5.9-6.2,1.1-12.5,1.5-18.8,1.7-2.9,0-5.8.1-8.6.1-3.4,0-6.8,0-10.3,0h-66.8c-3.4,0-6.8,0-10.3,0-2.9,0-5.8,0-8.6-.1-6.3-.2-12.6-.5-18.8-1.7-6.3-1.1-12.2-3-17.9-5.9-5.6-2.9-10.8-6.6-15.2-11.1s-8.2-9.6-11.1-15.2c-2.9-5.7-4.8-11.6-5.9-17.9-1.1-6.2-1.5-12.5-1.7-18.8,0-2.9-.1-5.8-.1-8.6,0-3.4,0-6.8,0-10.3v-66.8c0-3.4,0-6.8,0-10.3,0-2.9,0-5.8.1-8.6.2-6.3.5-12.6,1.7-18.8,1.1-6.3,3-12.2,5.9-17.9,2.9-5.6,6.6-10.8,11.1-15.2s9.6-8.2,15.2-11.1c5.7-2.9,11.6-4.8,17.9-5.9,6.2-1.1,12.5-1.5,18.8-1.7,2.9,0,5.8-.1,8.6-.1,3.4,0,6.8,0,10.3,0h66.8c3.4,0,6.8,0,10.3,0,2.9,0,5.8,0,8.6.1,6.3.2,12.6.5,18.8,1.7,6.3,1.1,12.2,3,17.9,5.9,5.6,2.9,10.8,6.6,15.2,11.1,4.5,4.5,8.2,9.6,11.1,15.2,2.9,5.7,4.8,11.6,5.9,17.9,1.1,6.2,1.5,12.5,1.7,18.8,0,2.9.1,5.8.1,8.6,0,3.4,0,6.8,0,10.3v66.8Z"/>
  <polygon class="st1" points="332.8 340.3 301.8 379.5 337.8 344.4 340.9 361.1 345 343.2 379.9 366.5 350.2 337.4 368.3 330.8 350.3 330.5 381.4 291.4 345.3 326.5 342.3 309.7 338.1 327.7 303.3 304.3 333 333.4 314.9 340 332.8 340.3"/>
</svg>